<svg xmlns="http://www.w3.org/2000/svg" id="Layer_1" data-name="Layer 1" viewBox="0 0 2542.14 1019.19"><defs><style>      .cls-1 {        fill: #1f77df;      }      .cls-1, .cls-2 {        stroke-width: 0px;      }      .cls-2 {        fill: #00c4b3;      }    </style></defs><path class="cls-2" d="M367,221.94c-186.8,0-338.23,150.38-338.23,335.88s151.43,335.89,338.23,335.89,338.24-150.38,338.24-335.89-151.43-335.88-338.24-335.88ZM367,704.66c-81.65,0-147.86-65.74-147.86-146.83s66.2-146.83,147.86-146.83,147.86,65.74,147.86,146.83-66.2,146.83-147.86,146.83Z"></path><path class="cls-2" d="M1063.81,221.94c-186.8,0-338.24,150.38-338.24,335.88s151.44,335.89,338.24,335.89,338.24-150.38,338.24-335.89-151.43-335.88-338.24-335.88ZM1063.81,704.66c-81.66,0-147.85-65.74-147.85-146.83s66.19-146.83,147.85-146.83,147.85,65.74,147.85,146.83-66.2,146.83-147.85,146.83Z"></path><path class="cls-1" d="M1786,604.93c-9.91,2.08-20.17,3.19-30.69,3.19-81.66,0-147.86-65.74-147.86-146.83s66.2-146.83,147.86-146.83c34.44,0,66.1,11.72,91.23,31.34,35.27-53.74,83.52-98.31,140.31-129.32-60.51-56.47-141.95-91.08-231.54-91.08-186.81,0-338.24,150.38-338.24,335.89s151.43,335.88,338.24,335.88c34.72,0,68.21-5.2,99.73-14.84-36.63-51.37-61.05-111.91-69.04-177.4Z"></path><path class="cls-2" d="M2175.14,221.94c-186.81,0-338.24,150.38-338.24,335.88s151.43,335.89,338.24,335.89c51.96,0,101.18-11.67,145.17-32.47v32.54h193.07v-335.96c0-185.5-151.43-335.88-338.24-335.88ZM2175.14,704.66c-81.66,0-147.86-65.74-147.86-146.83s66.2-146.83,147.86-146.83,147.85,65.74,147.85,146.83-66.2,146.83-147.85,146.83Z"></path></svg>